<svg id="Layer_1" enable-background="new 0 0 128 128" height="512" viewBox="0 0 128 128" width="512" xmlns="http://www.w3.org/2000/svg"><ellipse cx="64" cy="89.741" fill="#c58c6d" rx="31.365" ry="21.407"/><g fill="#dc9e80"><path d="m39.375 64c-9.429 4.955-15.922 14.117-17.475 24.654-.499 3.244 1.727 6.278 4.971 6.777.311.048.625.071.94.069h.146c2.6-.012 4.897-1.696 5.692-4.171 2.698-8.817 9.406-15.838 18.091-18.934z"/><path d="m88.625 64c9.429 4.955 15.922 14.117 17.475 24.654.499 3.244-1.727 6.278-4.971 6.777-.31.048-.623.071-.936.069h-.146c-2.6-.012-4.897-1.696-5.692-4.171-2.699-8.817-9.409-15.839-18.095-18.934z"/><circle cx="38.642" cy="22.986" r="10.486"/></g><circle cx="41.442" cy="25.786" fill="#ffe1d8" r="7.687"/><circle cx="89.358" cy="22.986" fill="#c58c6d" r="10.486"/><circle cx="86.558" cy="25.786" fill="#ffcec1" r="7.687"/><circle cx="64" cy="48.506" fill="#dc9e80" r="30.687"/><path d="m67.5 27.321c-7 7.928-7.586 35.423 22.533 37.426 8.972-14.375 4.593-33.302-9.782-42.274-4.874-3.042-10.505-4.655-16.251-4.654 0 0 10.5 1.573 3.5 9.502z" fill="#c58c6d"/><ellipse cx="64" cy="55.477" fill="#ffe1d8" rx="13.873" ry="11.023"/><path d="m64 44.455c-.031 0-.061 0-.092 0 1.1 7.154 5.571 13.343 12.016 16.636 1.244-1.609 1.929-3.58 1.949-5.613 0-6.088-6.211-11.023-13.873-11.023z" fill="#ffcec1"/><path d="m69.511 48.382c0 3.044-2.467 2.154-5.511 2.154s-5.511.89-5.511-2.154 2.468-5.512 5.512-5.512c3.043 0 5.511 2.468 5.51 5.512z" fill="#57565c"/><circle cx="49.881" cy="36.322" fill="#57565c" r="3.255"/><circle cx="78.119" cy="36.322" fill="#57565c" r="3.255"/><path d="m64 84.5c-8.879 0-16.077 7.198-16.077 16.077v7.544c10.339 4.035 21.816 4.035 32.155 0v-7.544c0-8.879-7.198-16.077-16.078-16.077z" fill="#ffe1d8"/><ellipse cx="45.813" cy="104.724" fill="#dc9e80" rx="13.589" ry="10.776"/><ellipse cx="82.187" cy="104.724" fill="#dc9e80" rx="13.589" ry="10.776"/><path d="m65.8 50.608c2.157.128 3.709.186 3.709-2.225.001-3.043-2.466-5.511-5.509-5.512-.1 0-.2.01-.307.016.272 2.672.984 5.281 2.107 7.721z" fill="#414145"/><path d="m88.333 103.333c-1.3 6.841-9.45 10.8-17.286 7.551 2.893 3.046 6.941 4.723 11.14 4.616 7.5 0 13.589-4.825 13.589-10.776s-6.084-10.777-13.589-10.777c0 0 7.48 2.386 6.146 9.386z" fill="#c58c6d"/><path d="m90.036 64.746c3.43 3.046 5.166 7.569 4.654 12.128-.94 7.626 6.626 12.434 11.41 11.78-1.511-9.97-7.405-18.741-16.064-23.908z" fill="#c58c6d"/></svg>